# ProBuilder 5.0.7
# https://unity3d.com/unity/features/worldbuilding/probuilder
# 12.03.2024 15:18:33

mtllib ./Floor_cell.mtl
o Floor_cell

g Floor_cell
v 2.353565 0.06509196 2.172256
v -0.6464348 0.06509196 2.172256
v 2.353565 0.265092 2.172256
v -0.6464348 0.265092 2.172256
v -0.6464348 0.06509196 -0.8277435
v -0.6464348 0.265092 -0.8277435
v 2.353565 0.06509196 -0.8277435
v 2.353565 0.265092 -0.8277435

vt 0.7797649 0.7730566
vt 0.4765173 0.7730566
vt 0.7797649 0.7932731
vt 0.4765173 0.7932731
vt 0.7614378 0.7730566
vt 0.4581901 0.7730566
vt 0.7614378 0.7932731
vt 0.4581901 0.7932731
vt 0.6072038 0.7730566
vt 0.3039562 0.7730566
vt 0.6072038 0.7932731
vt 0.3039562 0.7932731
vt 0.625531 0.7730566
vt 0.3222833 0.7730566
vt 0.625531 0.7932731
vt 0.3222833 0.7932731
vt 0.3039562 0.9860542
vt 0.6072038 0.9860542
vt 0.3039562 0.6828065
vt 0.6072038 0.6828065
vt 0.7797649 0.6828065
vt 0.4765173 0.6828065
vt 0.7797649 0.9860542
vt 0.4765173 0.9860542

vn 0 0 1
vn -1 0 0
vn 0 0 -1
vn 1 0 0
vn 0 1 0
vn 0 -1 0

usemtl Wall_Set_1_T1
f 3/3/1 4/4/1 2/2/1 1/1/1
f 4/7/2 6/8/2 5/6/2 2/5/2
f 6/11/3 8/12/3 7/10/3 5/9/3
f 8/15/4 3/16/4 1/14/4 7/13/4
f 8/19/5 6/20/5 4/18/5 3/17/5
f 1/23/6 2/24/6 5/22/6 7/21/6

