# ProBuilder 5.0.7
# https://unity3d.com/unity/features/worldbuilding/probuilder
# 12.03.2024 15:30:16

mtllib ./Wall.mtl
o Wall

g Wall
v -0.05848541 0.03657675 0.05714798
v -0.2584854 0.03657675 0.05714798
v -0.05848541 4.036577 0.05714798
v -0.2584854 4.036577 0.05714798
v -0.2584854 0.03657675 -2.942852
v -0.2584854 4.036577 -2.942852
v -0.05848541 0.03657675 -2.942852
v -0.05848541 4.036577 -2.942852

vt 0.7448369 0.6869328
vt 0.7306844 0.6869328
vt 0.7448369 0.9699833
vt 0.7306844 0.9699833
vt 0.7530195 0.6869328
vt 0.5407315 0.6869328
vt 0.7530195 0.9699833
vt 0.5407315 0.9699833
vt 0.7672666 0.6869328
vt 0.7672666 0.9699833
vt 0.9572195 0.6869328
vt 0.9572195 0.9699833
vt 0.752026 0.9419305
vt 0.7661785 0.9419305
vt 0.752026 0.7296426
vt 0.7661785 0.7296426
vt 0.7437488 0.7296426
vt 0.7295963 0.7296426
vt 0.7437488 0.9419305
vt 0.7295963 0.9419305

vn 0 0 1
vn -1 0 0
vn 0 0 -1
vn 1 0 0
vn 0 1 0
vn 0 -1 0

usemtl Wall_Set_1_T1
f 3/3/1 4/4/1 2/2/1 1/1/1
f 4/7/2 6/8/2 5/6/2 2/5/2
f 6/10/3 8/7/3 7/5/3 5/9/3
f 8/12/4 3/3/4 1/1/4 7/11/4
f 8/15/5 6/16/5 4/14/5 3/13/5
f 1/19/6 2/20/6 5/18/6 7/17/6

